#!Matlab matrix to amc conversion
:FULLY-SPECIFIED
:DEGREES
31
root -0.613730 0.132082 11.567403 9.138876 -8.320423 -6.872645
lowerback -7.225060 3.582277 3.895684
upperback -0.878303 4.359154 3.103930
thorax 3.175896 2.200296 1.427869
lowerneck -24.403870 -3.834339 -11.986545
upperneck 25.976740 -4.413664 11.514229
head 13.294255 -1.543402 5.804396
rclavicle -0.000000 -0.000000
rhumerus -17.403489 27.364062 -81.419881
rradius 47.171956
rwrist -22.133045
rhand -28.856200 -18.800500
rfingers 7.125020
rthumb -2.212790 -48.768800
lclavicle -0.000000 -0.000000
lhumerus -54.942091 21.058394 59.698498
lradius 6.263080
lwrist -39.417531
lhand -19.668800 -28.799300
lfingers 7.125020
lthumb 6.659510 1.076010
rfemur 23.546676 1.554096 29.565480
rtibia -11.105454
rfoot 1.517648 8.777443
rtoes -20.766800
lfemur -40.688084 3.660681 -12.621915
ltibia 12.765136
lfoot -6.179971 13.545330
ltoes -22.051700
32
root -0.610785 0.079137 12.037959 8.902376 -8.042312 -7.032364
lowerback -7.164316 3.523032 3.898581
upperback -0.931839 4.295624 3.107428
thorax 3.089939 2.166125 1.420771
lowerneck -24.322321 -3.836635 -12.017688
upperneck 25.965301 -4.446403 11.640071
head 13.289558 -1.548878 5.854323
rclavicle 0.000000 -0.000000
rhumerus -17.468590 26.985141 -81.600518
rradius 47.629707
rwrist -21.721696
rhand -28.856200 -18.800500
rfingers 7.125020
rthumb -2.212790 -48.768800
lclavicle 0.000000 -0.000000
lhumerus -55.199216 19.907204 60.499989
lradius 5.139430
lwrist -38.320794
lhand -19.668800 -28.799300
lfingers 7.125020
lthumb 6.659510 1.076010
rfemur 24.981124 1.739469 29.326506
rtibia -10.673951
rfoot 3.786125 8.613521
rtoes -20.766800
lfemur -41.054544 4.490671 -13.378001
ltibia 16.161234
lfoot -4.669054 11.312495
ltoes -22.051700
33
root -0.605023 0.037042 12.517778 8.633676 -7.771870 -6.800595
lowerback -7.066713 3.454918 3.451203
upperback -1.039382 4.254803 3.003423
thorax 2.902122 2.141033 1.550163
lowerneck -24.273659 -3.880495 -12.019961
upperneck 26.065121 -4.546822 11.736115
head 13.343553 -1.585779 5.881810
rclavicle 0.000000 -0.000000
rhumerus -17.975734 26.319436 -81.859388
rradius 47.952263
rwrist -21.133726
rhand -28.856200 -18.800500
rfingers 7.125020
rthumb -2.212790 -48.768800
lclavicle 0.000000 -0.000000
lhumerus -55.452870 18.997293 61.091871
lradius 4.065904
lwrist -37.502818
lhand -19.668800 -28.799300
lfingers 7.125020
lthumb 6.659510 1.076010
rfemur 26.577447 1.986480 28.711461
rtibia -10.427433
rfoot 6.613986 8.123221
rtoes -20.766800
lfemur -41.292695 5.530032 -14.586958
ltibia 20.015887
lfoot -1.953206 9.574818
ltoes -22.051700
34
root -0.598735 0.007443 13.001418 8.307214 -7.428540 -6.048984
lowerback -6.900556 3.348422 2.425916
upperback -1.200021 4.206528 2.762432
thorax 2.591146 2.109264 1.851646
lowerneck -24.211694 -3.969968 -12.026824
upperneck 26.211878 -4.716405 11.832706
head 13.425361 -1.655204 5.900671
rclavicle 0.000000 -0.000000
rhumerus -19.018422 25.297006 -82.258754
rradius 48.039666
rwrist -20.383165
rhand -28.856200 -18.800500
rfingers 7.125020
rthumb -2.212790 -48.768800
lclavicle 0.000000 -0.000000
lhumerus -55.565381 18.118430 61.738971
lradius 3.203645
lwrist -36.581265
lhand -19.668800 -28.799300
lfingers 7.125020
lthumb 6.659510 1.076010
rfemur 27.841326 2.140449 27.564890
rtibia -9.497158
rfoot 10.085220 7.312087
rtoes -20.766800
lfemur -41.244895 6.677500 -16.392762
ltibia 23.993127
lfoot 1.662788 8.029251
ltoes -22.051700
35
root -0.593002 -0.007038 13.481811 7.877377 -6.885988 -4.882037
lowerback -6.595139 3.171569 1.007485
upperback -1.375581 4.092593 2.413458
thorax 2.170224 2.043592 2.245456
lowerneck -24.048936 -4.084108 -12.108433
upperneck 26.256828 -4.910403 11.979799
head 13.458035 -1.738972 5.941808
rclavicle 0.000000 -0.000000
rhumerus -20.516668 23.973971 -82.816567
rradius 47.893574
rwrist -19.673335
rhand -28.856200 -18.800500
rfingers 7.125020
rthumb -2.212790 -48.768800
lclavicle 0.000000 -0.000000
lhumerus -55.371606 17.065193 62.748354
lradius 2.695765
lwrist -35.073867
lhand -19.668800 -28.799300
lfingers 7.125020
lthumb 6.659510 1.076010
rfemur 27.488991 1.763323 25.895828
rtibia -5.543757
rfoot 13.942219 6.503681
rtoes -20.766800
lfemur -40.788066 7.640458 -18.640674
ltibia 27.391067
lfoot 4.692018 6.104881
ltoes -22.051700
